<?xml version="1.0" encoding="UTF-8"?><svg id="Layer_8" xmlns="http://www.w3.org/2000/svg" viewBox="0 0 2932.8 1369.4"><defs><style>.cls-1{fill:none;}.cls-1,.cls-2,.cls-3{stroke-width:0px;}.cls-2{fill:#ffb657;}.cls-3{fill:#fff;}</style></defs><path class="cls-3" d="M393.3,558.3c-31.5,0-58.1-11.1-79.9-32.9-21.8-22.3-32.9-48.9-32.9-80.4s11.1-57.1,32.9-79.4,48.4-33.4,79.9-33.4h144.3v64.9h-144.3c-6.8,0-13.1,1-18.9,3.4-6.3,2.4-11.1,5.8-16,10.7-4.4,4.4-7.7,9.7-10.2,15.5-2.4,5.8-3.4,12.1-3.4,18.4,0,13.6,4.4,24.7,13.6,34.4,9.7,9.7,20.8,14.5,34.9,14.5h96.4c31.5,0,58.1,11.1,79.9,32.9s33.4,48.9,33.4,79.9-11.1,57.6-33.4,79.9-48.4,32.9-79.9,32.9h-209.2v-64.9h209.2c6.8,0,13.1-1,18.9-3.4,6.3-2.4,11.6-5.8,16-10.2s7.7-9.2,10.2-15.5c2.4-5.8,3.9-12.1,3.9-18.9,0-13.1-5.3-24.2-14.5-33.9-9.7-9.7-20.8-14.5-34.4-14.5h-96.5ZM1158.6,342.9v-10.7h64.4v322.5h193.7v64.9h-258.1v-376.7ZM1627.1,654.7c-17.9,0-34.4-3.4-50.4-9.7-15.5-6.8-29-16-40.7-28.1-1.4-1.4-2.7-2.8-4-4.2-4-4.4-7.9-8.8-11.3-13.7-.4-.6-.9-1.2-1.3-1.9-4.4-6.5-8.2-13.5-11.5-20.9-3.4-8-5.9-16.1-7.6-24.5s-2.5-16.9-2.5-25.9c0-13.4,1.9-26.1,5.7-38.3,1.3-4.1,2.8-8.1,4.4-12.1,3.2-7.4,7.1-14.4,11.5-20.9.4-.6.9-1.3,1.3-1.9,3.4-4.9,7.3-9.3,11.3-13.7,1.3-1.4,2.6-2.9,4-4.2,11.6-12.1,25.2-21.3,40.7-28.1,16-6.3,32.4-9.7,50.4-9.7,34.9,0,65.4,12.1,91,37.3l46-45c-17.9-17.9-38.7-32-62-42.1-23.2-10.2-48.4-15-75-15s-51.8,5.3-75,15.5c-23.7,10.2-44.1,23.7-62,41.6-17.4,17.4-31.5,37.8-41.6,61-10.2,23.7-15.5,48.9-15.5,75.5s5.3,51.8,15.5,75.5c10.2,23.2,24.2,43.6,41.6,61s38.2,31.5,62,41.6c23.2,10.2,48.4,15.5,75,15.5s51.8-4.8,75-15,44.1-24.2,62-42.1l-46-45c-25.7,25.4-56.2,37.5-91,37.5h0ZM2274.1,332.2c-31.5,0-58.1,11.1-79.9,33.4-21.8,22.3-32.9,48.4-32.9,79.4s11.1,58.1,32.9,80.4c21.8,21.8,48.4,32.9,79.9,32.9h96.4c13.6,0,24.7,4.8,34.4,14.5,9.2,9.7,14.5,20.8,14.5,33.9,0,6.8-1.5,13.1-3.9,18.9-2.4,6.3-5.8,11.1-10.2,15.5s-9.7,7.7-16,10.2c-5.8,2.4-12.1,3.4-18.9,3.4h-227.6l-161.2-322.5-193.6,387.3h71.7l32.9-64.9,32-63.9,57.1-113.8,56.7,113.8,32.9,64.4,32,64.4h267.3c31.5,0,58.1-11.1,79.9-32.9,22.3-22.3,33.4-48.9,33.4-79.9s-11.1-57.6-33.4-79.9c-21.8-21.8-48.4-32.9-79.9-32.9h-96.4c-14,0-25.2-4.8-34.9-14.5-9.2-9.7-13.6-20.8-13.6-34.4,0-6.3,1-12.6,3.4-18.4s5.8-11.1,10.2-15.5c4.8-4.8,9.7-8.2,16-10.7,5.8-2.4,12.1-3.4,18.9-3.4h301.2v322.5h64.9v-322.4h128.7v-64.9h-494.9Z"/><path class="cls-2" d="M824.4,294.6c-1.1-7.8-3.3-15.5-6.5-23l119.1-82.9-130.4,63.8c-10.7-13.9-24.9-24-40.6-29.7l7.6-63.5-24.2,59.2c-16.5-2.6-33.8-.7-49.9,6.2l-82.9-119.1,63.8,130.4c-13.9,10.7-24,24.9-29.7,40.6l-63.5-7.6,59.2,24.2c-2.6,16.5-.7,33.8,6.2,49.9l-119.1,82.9,130.5-63.8c6,7.8,13.2,14.5,21,19.8,0,0,9.6-24.7,56.9-55.4,50.4-32.8,82.5-32,82.5-32Z"/><path class="cls-3" d="M874.4,742.9c-58,0-112.5-22.6-153.4-63.6-41-41-63.6-95.5-63.6-153.4s22.6-112.5,63.6-153.5,95.5-63.6,153.4-63.6,112.5,22.6,153.4,63.6c41,41,63.6,95.5,63.6,153.4s-22.6,112.5-63.6,153.4c-40.9,41.1-95.4,63.7-153.4,63.7h0ZM874.4,330.9c-107.5,0-195,87.5-195,195s87.5,195,195,195,195-87.5,195-195-87.5-195-195-195Z"/><path class="cls-3" d="M760,582.9l-39.8-59.6,46-169.3,167.8,36.5,39.6,59.2-15.1,10.1-35.5-53.1-143.7-31.2-39.4,144.5,35.3,52.7-15.2,10.2Z"/><path class="cls-3" d="M933.2,584.8l-90.4-136.9-71.3-70.2,12.8-13,72.7,71.6,91.4,138.5-15.2,10ZM980.9,522.8c-3.2,0-6.5-.4-9.8-1.1-11-2.6-20.4-9.3-26.4-18.9s-7.8-21-5.2-32,9.3-20.4,18.9-26.4c19.9-12.3,46.1-6.2,58.4,13.7,6,9.6,7.8,21,5.2,32-2.6,11-9.3,20.4-18.9,26.4-6.7,4.1-14.4,6.3-22.2,6.3h0ZM980.8,456.2c-4.4,0-8.8,1.2-12.7,3.6-11.3,7-14.8,22-7.8,33.3,3.4,5.5,8.7,9.3,15,10.8s12.8.4,18.3-3c11.3-7,14.8-22,7.8-33.3-4.6-7.3-12.5-11.4-20.6-11.4Z"/><path class="cls-3" d="M958.4,650.5c-3.2,0-6.5-.4-9.8-1.1-11-2.6-20.4-9.3-26.4-18.9-6-9.6-7.8-21-5.2-32s9.3-20.4,18.9-26.4c19.9-12.3,46.1-6.2,58.4,13.7,6,9.6,7.8,21,5.2,32s-9.3,20.4-18.9,26.4c-6.7,4.2-14.4,6.3-22.2,6.3ZM958.3,583.9c-4.4,0-8.8,1.2-12.7,3.6-5.5,3.4-9.3,8.7-10.8,15s-.4,12.8,3,18.3c7,11.3,22,14.8,33.3,7.8s14.8-22,7.8-33.3c-4.6-7.3-12.5-11.4-20.6-11.4h0ZM786.1,643.1c-3.2,0-6.5-.4-9.8-1.1-11-2.6-20.4-9.3-26.4-18.9-6-9.6-7.8-21-5.2-32s9.3-20.4,18.9-26.4c9.6-6,21-7.8,32-5.2s20.4,9.3,26.4,18.9c6,9.6,7.8,21,5.2,32s-9.3,20.4-18.9,26.4c-6.7,4.2-14.4,6.3-22.2,6.3ZM786,576.5c-4.4,0-8.8,1.2-12.7,3.6-5.5,3.4-9.3,8.7-10.8,15s-.4,12.8,3,18.3,8.7,9.3,15,10.8,12.8.4,18.3-3,9.3-8.7,10.8-15,.4-12.8-3-18.3c-4.6-7.3-12.5-11.4-20.6-11.4h0Z"/><path class="cls-2" d="M1236.2,1040.7h-.6c-5.1,9-17.3,15.6-31.9,15.6-16.5,0-38.5-7.9-38.5-31.9,0-30.6,38.5-34.9,70.6-34.9v-2.5c0-12.6-10.7-18.8-23.5-18.8-10.9,0-21.4,5.1-28,11.8l-13.3-15.6c11.6-10.7,27.8-16.3,43.4-16.3,36.8,0,45.8,22.7,45.8,43.2v62.5h-24v-13.1h0ZM1235.8,1006.9h-5.8c-16.3,0-39.2,1.9-39.2,17.1,0,9.8,9.2,12.8,18,12.8,17.5,0,27-10.1,27-26.3v-3.6ZM1344.9,902.2h53.7c39.6,0,83.7,18.8,83.7,75.8,0,53.1-44.1,75.8-83.7,75.8h-53.7v-151.6h0ZM1394.3,1030.2c27.8,0,59.1-11.3,59.1-52.2,0-43.4-31.2-52.6-59.1-52.6h-22.5v104.9h22.5v-.1ZM1508.4,902.2h35.7l70.4,113.4h.4v-113.4h27v151.5h-34.2l-71.9-117.1h-.4v117.1h-27v-151.5h0ZM1656.5,902.2h30.2l41.7,116.6h.9l42.2-116.6h29.1l-60.8,151.5h-23.3l-60-151.5h0ZM1933.6,979.5c-4.1-5.8-12.8-10.1-21.2-10.1-18.8,0-28.2,16.9-28.2,33s9.6,33,29.1,33c7.9,0,16.7-3.2,21.6-9.2l16.1,16.3c-8.6,9.2-22.7,14.3-37.9,14.3-30.4,0-55.6-20.1-55.6-54.4s24.8-54.4,55-54.4c15,0,30.6,6,38.7,16.1l-17.6,15.4h0ZM2017.7,948c31,0,55.9,21.6,55.9,53.9s-24.8,54.8-55.9,54.8-55.9-22.5-55.9-54.8c.1-32.3,24.9-53.9,55.9-53.9ZM2017.7,1035.3c20.3,0,29.7-17.3,29.7-33.4s-9.4-33-29.7-33-29.7,16.9-29.7,33,9.4,33.4,29.7,33.4ZM2258.9,989.5v64.2h-25.7v-56.9c0-12.2-2.8-27.4-19.3-27.4s-22.7,15-22.7,28.2v56.1h-25.7v-62.1c0-12.6-6-22.3-19-22.3-15.4,0-22.5,14.1-22.5,27.8v56.5h-25.7v-102.6h24.4v16.5h.4c4.5-10.1,15.4-19.5,31.9-19.5s26.3,7.9,32.1,19.5c6.8-12.4,18.4-19.5,33.8-19.5,26.9,0,38,20.6,38,41.5h0ZM2313.5,951v14.3h.6c5.1-8.1,16.7-17.3,35.5-17.3,29.3,0,49.9,23.5,49.9,53.9s-19.3,54.8-50.5,54.8c-14.3,0-27.4-6.4-34-16.7h-.4v65.1h-25.7v-154.1h24.6,0ZM2343.9,969c-18.8,0-30.2,17.3-30.2,33.4s11.3,33,30.2,33c19.9,0,29.5-17.3,29.5-33.4s-9.6-33-29.5-33h0ZM2488.1,1040.7h-.6c-5.1,9-17.3,15.6-31.9,15.6-16.5,0-38.5-7.9-38.5-31.9,0-30.6,38.5-34.9,70.6-34.9v-2.5c0-12.6-10.7-18.8-23.5-18.8-10.9,0-21.4,5.1-28,11.8l-13.3-15.6c11.6-10.7,27.8-16.3,43.4-16.3,36.8,0,45.8,22.7,45.8,43.2v62.5h-24v-13.1h0ZM2487.7,1006.9h-5.8c-16.3,0-39.2,1.9-39.2,17.1,0,9.8,9.2,12.8,18,12.8,17.5,0,27-10.1,27-26.3v-3.6ZM2542,951h24.4v16.5h.4c4.5-10.3,16.7-19.5,31.9-19.5,26.8,0,37.9,20.5,37.9,41.5v64.2h-25.7v-56.9c0-12.2-2.8-27.4-19.3-27.4s-24,14.1-24,27.8v56.5h-25.6v-102.7ZM2651.2,951h28.5l28.7,74.7h.4l25.5-74.7h26.8l-48.6,124.8c-7.3,18.6-16.3,29.3-38.9,29.3-4.3,0-8.8-.4-13.3-1.5l2.1-22.3c3.4,1.1,6.8,1.5,9.6,1.5,10.9,0,13.9-5.4,18.2-16.1l5.1-13.1-44.1-102.6Z"/><path class="cls-1" d="M0,0h2932.8v1369.4H0V0Z"/><path class="cls-1" d="M0,0h2932.8v1323.4H0V0Z"/></svg>